PathFileType	4	(X/Y/Z)	./resultDataOpenSim/trcMotMarkerGrf/sub09/qtm-01-06.trc
DataRate	CameraRate	NumFrames	NumMarkers	Units	OrigDataRate	OrigDataStartFrame	OrigNumFrames
250.000000	250.000000	7	24	m	250.000000	1	482
Frame#	Time	L.Toe.Tip			R.Toe.Tip			L.Ankle.Lat			R.Ankle.Lat			L.Ankle.Med			R.Ankle.Med			L.Heel			R.Heel			L.Knee.Lat			R.Knee.Lat			L.Knee.Med			R.Knee.Med			L.Thigh.Upper			R.Thigh.Upper			L.ASIS			R.ASIS			V.Sacral			L.Acromium			R.Acromium			C7			L.Elbow			R.Elbow			L.Wrist.Lat			R.Wrist.Lat
		X1	Y1	Z1	X2	Y2	Z2	X3	Y3	Z3	X4	Y4	Z4	X5	Y5	Z5	X6	Y6	Z6	X7	Y7	Z7	X8	Y8	Z8	X9	Y9	Z9	X10	Y10	Z10	X11	Y11	Z11	X12	Y12	Z12	X13	Y13	Z13	X14	Y14	Z14	X15	Y15	Z15	X16	Y16	Z16	X17	Y17	Z17	X18	Y18	Z18	X19	Y19	Z19	X20	Y20	Z20	X21	Y21	Z21	X22	Y22	Z22	X23	Y23	Z23	X24	Y24	Z24

1	0	-1.5091869	0.036804497	-0.040185493	-0.89830869	0.099319006	0.081008719	-1.6605418	0.079467719	-0.068982018	-1.0485383	0.072091307	0.10628915	-1.6286444	0.096747878	0.022196788	-1.0414588	0.11316487	0.016547251	NaN	NaN	NaN	-1.0968494	0.031134124	0.049609466	-1.5110679	0.47140069	-0.13197109	-1.1392977	0.52140442	0.15527781	-1.5065263	0.47111584	-0.0050848673	-1.1382497	0.50416939	0.027704733	-1.3970449	0.87735468	-0.17292554	-1.3509111	0.86680365	0.19528672	-1.2887456	0.94734219	-0.12294495	-1.2722465	0.94949269	0.11634018	-1.4438928	1.0126655	0.012729358	-1.2520706	1.3979776	-0.16172302	-1.2723815	1.4117434	0.16633014	-1.3266728	1.4586596	0.0017255143	-1.3506518	1.0358077	-0.23140529	-1.427492	1.090037	0.27191127	-1.1193172	0.89370449	-0.21390124	-1.3159522	0.84305351	0.28762288
2	0.004	-1.5091323	0.036734612	-0.040154209	-0.88247525	0.10376868	0.081936159	-1.6602913	0.080047434	-0.068701796	-1.0320049	0.072757165	0.10652386	-1.6280648	0.097147677	0.022547677	-1.0252247	0.11397292	0.016838548	NaN	NaN	NaN	-1.0784779	0.03079892	0.049732841	-1.5082815	0.47098683	-0.13159342	-1.1331784	0.51968514	0.15533154	-1.5031087	0.47073264	-0.0049143282	-1.1314651	0.50279373	0.027654032	-1.3915148	0.87590708	-0.17275123	-1.344866	0.86484929	0.19547428	-1.2828207	0.94585367	-0.12291413	-1.2658806	0.94773538	0.1163978	-1.4378098	1.0108573	0.013039198	-1.2460401	1.3964494	-0.16141189	-1.2666819	1.4101127	0.16667179	-1.3206479	1.4571095	0.0020761992	-1.343883	1.0339071	-0.23112332	-1.4214205	1.088037	0.2717066	-1.1118608	0.89315231	-0.21313566	-1.3098195	0.84118858	0.28805835
3	0.008	-1.5090784	0.036662401	-0.040117852	-0.86676304	0.10820865	0.08284094	-1.6600127	0.08069215	-0.068450546	-1.0154891	0.073602241	0.10689228	-1.627551	0.097563762	0.022860765	-1.0093426	0.11486551	0.017161922	NaN	NaN	NaN	-1.0604667	0.030448821	0.050175718	-1.5053957	0.47057592	-0.13127875	-1.1270405	0.51803046	0.1553978	-1.4996033	0.47033163	-0.0047653678	-1.1247008	0.50138817	0.02761071	-1.3859545	0.87451337	-0.17253019	-1.3387071	0.86292528	0.19566267	-1.2769168	0.94436084	-0.12290612	-1.2594874	0.9460119	0.11644121	-1.4317027	1.0090386	0.013336856	-1.2399725	1.3949133	-0.16106816	-1.2609325	1.4084849	0.16701355	-1.314624	1.4555364	0.0023398568	-1.3371232	1.0320234	-0.23084214	-1.4154896	1.086071	0.27138913	-1.1044211	0.89258755	-0.21236488	-1.3037038	0.83935444	0.28849309
4	0.012	-1.5090243	0.036589798	-0.040077528	-0.85132362	0.11260929	0.083690704	-1.6596922	0.081421398	-0.068243651	-0.99880671	0.074815865	0.10751459	-1.6271082	0.098020381	0.023111354	-0.99393735	0.11587394	0.017496377	NaN	NaN	NaN	-1.0430588	0.030113668	0.050994178	-1.502256	0.4701685	-0.13107221	-1.1208151	0.51645295	0.15547811	-1.4959722	0.46990267	-0.0046343071	-1.1179151	0.49993456	0.027582665	-1.3803455	0.87317776	-0.17226055	-1.3324006	0.86102585	0.19584691	-1.2710203	0.94286657	-0.12293351	-1.2530498	0.94432346	0.11646535	-1.4255435	1.0072129	0.013623398	-1.2338526	1.3933715	-0.1606945	-1.2551122	1.406864	0.16735974	-1.3085409	1.4539396	0.0026085612	-1.3303661	1.0301619	-0.23055048	-1.4098172	1.0841421	0.27073381	-1.0970115	0.89198838	-0.21159747	-1.2975643	0.83757614	0.28891276
5	0.016	-1.5089664	0.036520586	-0.040041198	-0.83632139	0.11689872	0.084450916	-1.6593253	0.082202786	-0.068086519	-0.98181074	0.076507989	0.10840403	-1.6266944	0.098538486	0.023296467	-0.97897889	0.11699004	0.017801881	NaN	NaN	NaN	-1.026319	0.029900672	0.051905148	-1.4987978	0.46975708	-0.13097145	-1.1144299	0.51493621	0.15558434	-1.4922127	0.46944831	-0.0045087294	-1.1110975	0.4984281	0.027572654	-1.3746906	0.87186904	-0.17195994	-1.3259706	0.85913207	0.19601773	-1.2651075	0.94138529	-0.12299159	-1.2465729	0.94265554	0.1164732	-1.4193228	1.0053937	0.01390763	-1.2276923	1.3918363	-0.16031079	-1.2492291	1.4052558	0.16771486	-1.3022927	1.4523567	0.0031773583	-1.32362	1.0283275	-0.23025934	-1.4044386	1.0822445	0.26956834	-1.0896578	0.89133331	-0.2108516	-1.2913596	0.83585884	0.28930888
6	0.02	-1.5088947	0.036454816	-0.04002035	-0.82183714	0.12097639	0.085096288	-1.6589055	0.083009495	-0.067986132	-0.96486376	0.078528596	0.10933057	-1.6262599	0.099120393	0.023426779	-0.96442456	0.11819331	0.018055933	NaN	NaN	NaN	-1.0101909	0.029903913	0.052596286	-1.4950713	0.46932613	-0.13093122	-1.1078792	0.51345742	0.15573863	-1.4883338	0.46896893	-0.004374958	-1.1043327	0.49687413	0.027580007	-1.3689929	0.87056118	-0.17163781	-1.31941	0.857237	0.19616896	-1.2591544	0.93992909	-0.12306607	-1.2400574	0.94100142	0.11647081	-1.4130418	1.0035906	0.014197894	-1.2214979	1.390317	-0.15992626	-1.2432842	1.4036637	0.1680816	-1.2957928	1.4508364	0.0043188097	-1.3169088	1.0265246	-0.23003145	-1.3991734	1.0803873	0.26811042	-1.0823717	0.89061913	-0.21013615	-1.2850653	0.83418984	0.28968909
7	0.024	-1.5087942	0.036390653	-0.04002459	-0.80788333	0.12474996	0.085601386	-1.6584222	0.083864539	-0.067951321	-0.94884363	0.080451964	0.10991468	-1.6257529	0.099754058	0.023504147	-0.95034101	0.11943744	0.018238512	NaN	NaN	NaN	-0.99465408	0.030113641	0.052991924	-1.4911233	0.46886308	-0.13090013	-1.101208	0.51199845	0.15595546	-1.4843492	0.46845495	-0.0042238488	-1.0977155	0.49528766	0.027606621	-1.363252	0.86925073	-0.17129874	-1.3126828	0.85535099	0.19630073	-1.2531467	0.93849933	-0.12314911	-1.2334655	0.9393678	0.11645434	-1.4067103	1.0018111	0.014505795	-1.2152632	1.388816	-0.15954164	-1.2372675	1.4020895	0.16845999	-1.2891028	1.4493881	0.0058996427	-1.3102588	1.0247492	-0.22994846	-1.3937008	1.0785766	0.26687065	-1.0751465	0.8898632	-0.20944675	-1.2786698	0.8325559	0.29005979
